<svg xmlns="http://www.w3.org/2000/svg" width="51" height="32" viewBox="0 0 51 32" fill="none">
<path opacity="0.15" d="M33.7356 1.0996C32.3991 0.364431 30.8477 0 29.1522 0C26.6593 0 24.7328 0.838569 23.2361 2.23324C21.7393 0.838569 19.8128 0 17.3212 0C15.6269 0 14.0743 0.364431 12.7378 1.0996C4.83179 2.77043 0 8.64798 0 16.9441C0 29.1406 9.56918 31.3461 10.1269 31.4974C16.325 33.1771 17.3684 30.1355 17.5398 29.8077C18.1198 30.1192 20.7183 31.5025 23.2361 31.5353C25.7538 31.5025 28.3523 30.1192 28.9324 29.8077C29.1038 30.1355 30.1471 33.1771 36.3452 31.4974C36.9029 31.3461 46.4721 29.1406 46.4721 16.9441C46.4721 8.64672 41.6403 2.77043 33.7343 1.0996H33.7356ZM13.693 30.5668C6.42541 30.3033 1.48432 24.8078 1.48432 16.9441C1.48432 10.4764 4.62063 5.70353 10.0573 3.47407C8.60034 5.46016 7.75446 8.3113 7.75446 12.0502C7.75446 19.2896 11.0771 25.6728 16.2977 29.0763C16.2977 30.2982 14.401 30.5933 13.6942 30.5668H13.693ZM16.8193 27.7548C12.2583 24.5682 9.23754 18.9252 9.23754 12.0477C9.23754 1.76289 15.889 1.50438 17.3224 1.50438C19.2725 1.50438 20.8984 2.08949 22.2411 3.32023C19.0589 7.33654 18.2726 14.2532 17.8776 19.8066C17.6801 22.9276 16.8193 27.7548 16.8193 27.7548ZM23.2361 30.3133C22.3057 30.3133 20.1631 29.7383 18.0689 28.5479C18.7583 26.49 19.0763 23.5405 19.2874 19.8836C19.8103 12.3238 21.0611 7.2861 23.2348 4.4274C25.4085 7.2861 26.6593 12.3238 27.1822 19.8836C27.3934 23.5405 27.7114 26.49 28.4007 28.5479C26.3065 29.7371 24.1639 30.3133 23.2336 30.3133H23.2361ZM28.5957 19.8079C28.1995 14.2544 27.4133 7.3378 24.2322 3.32149C25.5749 2.09075 27.2009 1.50564 29.151 1.50564C30.5844 1.50564 37.2358 1.76415 37.2358 12.0489C37.2358 18.9265 34.215 24.5695 29.654 27.756C29.654 27.756 28.7945 22.9289 28.5957 19.8079ZM32.7804 30.5668C31.5867 30.6097 30.1769 30.0813 30.1769 29.0763C35.3975 25.6728 38.7201 19.2909 38.7201 12.0502C38.7201 8.3113 37.873 5.46016 36.4173 3.47407C41.854 5.70353 44.9903 10.4777 44.9903 16.9441C44.9903 24.8065 40.048 30.302 32.7816 30.5668H32.7804Z" fill="white"/>
<path d="M25.3738 30.7585V31.9949H22.9405C22.858 31.9974 22.7742 32 22.6917 32C20.6685 32 19.5031 30.9527 19.5031 29.343C19.5031 27.3068 21.5263 26.4335 24.4498 26.2596C25.9415 26.1605 26.6842 25.9282 26.6842 25.291C26.6842 24.0698 25.5751 23.1558 24.1071 23.1558C24.0496 23.1558 22.6879 23.1634 22.6879 23.1634V21.8965H24.1472C26.1078 21.8965 27.5058 22.8828 27.9797 24.495C28.101 24.9178 28.161 25.3544 28.1585 25.7949V30.4106H29.4764V31.788L26.8793 31.8083V30.761H25.3751V29.2389H26.7593V26.9019C26.4904 27.1545 25.6139 27.3691 24.4673 27.4439C22.0214 27.6179 21.0099 28.1802 21.0099 29.2681C21.0099 30.2367 21.7351 30.7623 22.9393 30.7623H25.3751V30.7572L25.3738 30.7585Z" fill="white"/>
<path d="M22.6817 23.1634H21.4338V24.4303H22.6817V23.1634Z" fill="white"/>
<path d="M21.435 24.4303H20.1871V25.6972H21.435V24.4303Z" fill="white"/>
<path d="M39.8753 18.0641V31.7797H38.4667V29.9249C37.7045 31.1817 36.3919 31.9707 34.7754 31.9707C32.0741 31.9707 30.0366 29.8061 30.0366 26.9487C30.0366 24.0912 32.0716 21.9267 34.7754 21.9267C34.9211 21.9267 37.6971 21.9469 37.6971 21.9469V23.3364H34.9559C33.0467 23.3541 31.5797 24.9118 31.5797 26.9487C31.5797 28.9855 33.0629 30.5609 34.9858 30.5609C36.0581 30.5698 37.0694 30.0514 37.6996 29.1714C38.1242 28.5683 38.3484 27.8438 38.3409 27.1029V24.7272H37.6996V23.3377H38.3733V18.0641H39.8765H39.8753Z" fill="white"/>
<path d="M44.1624 27.598H42.7884V28.993H44.1624V27.598Z" fill="white"/>
<path d="M51 31.7854L48.4032 31.8057V29.9436C47.6581 31.185 46.0353 31.9999 44.2199 31.9999C43.8774 32.0024 43.536 31.9681 43.201 31.8983C42.0733 31.6419 41.2744 30.6214 41.2819 29.4486V28.9942H42.7884V29.7736C42.7884 30.0465 42.9247 30.299 43.151 30.445C43.4773 30.6519 43.9236 30.7598 44.4687 30.7598C46.4716 30.7598 48.0994 29.342 48.2732 27.598H44.1624L44.1624 26.2031H46.6304C47.5706 26.2031 48.0494 25.8998 48.1807 25.5037C48.2032 25.4352 48.2145 25.3616 48.2132 25.2892C48.2132 25.1712 48.2032 25.0519 48.1807 24.9364C48.0932 24.4782 47.8481 24.0682 47.4893 23.7763C47.0292 23.3879 46.3778 23.1556 45.6352 23.1556C44.1062 23.1556 43.0584 24.0085 42.7896 25.4441H41.3581C41.6844 23.2546 43.326 21.8965 45.6752 21.8965C47.7381 21.8965 49.1746 22.9868 49.5747 24.7498C49.6185 24.9478 49.6497 25.1483 49.6672 25.3502C49.6797 25.4936 49.6872 25.6434 49.6872 25.7944V30.4095H51V31.7854Z" fill="white"/>
<g clip-path="url(#clip0_1252_2315)">
<g opacity="0.15">
<path d="M50.5492 29.5782H50.5755V29.7205H50.7682V29.5782H50.7945V29.8868H50.7682V29.7446H50.5755V29.8868H50.5492V29.5782Z" fill="white"/>
<path d="M50.6723 30.0652C50.4906 30.0652 50.3438 29.9161 50.3438 29.7325C50.3438 29.549 50.4906 29.399 50.6723 29.399C50.854 29.399 51.0008 29.5481 51.0008 29.7325C51.0008 29.917 50.854 30.0661 50.6723 30.0661V30.0652ZM50.6723 29.4292C50.5076 29.4292 50.3735 29.5653 50.3735 29.7325C50.3735 29.8997 50.5076 30.0351 50.6715 30.0351C50.8353 30.0351 50.9694 29.8989 50.9694 29.7325C50.9694 29.5662 50.8361 29.4292 50.6723 29.4292Z" fill="white"/>
</g>
</g>
<defs>
<clipPath id="clip0_1252_2315">
<rect width="0.65625" height="0.666235" fill="white" transform="translate(50.3438 29.399)"/>
</clipPath>
</defs>
</svg>