<svg xmlns="http://www.w3.org/2000/svg" width="19" height="15" viewBox="0 0 19 15" fill="none">
<path d="M16.1066 2.11943C16.1016 2.10982 16.0933 2.10229 16.0831 2.09819C14.9125 1.56737 13.6771 1.18886 12.408 0.97212C12.3964 0.970001 12.3845 0.97153 12.3739 0.976488C12.3633 0.981445 12.3546 0.989581 12.3489 0.999736C12.1807 1.30148 12.028 1.61141 11.8914 1.92836C10.5233 1.72312 9.1317 1.72312 7.76361 1.92836C7.6261 1.61061 7.47095 1.30059 7.29886 0.999736C7.29296 0.989801 7.28417 0.981854 7.27363 0.976928C7.26309 0.972002 7.2513 0.970327 7.23978 0.97212C5.97048 1.1884 4.73504 1.56694 3.56455 2.09822C3.55453 2.10241 3.54608 2.10958 3.54036 2.11873C1.19961 5.5734 0.558393 8.94313 0.872953 12.2711C0.873838 12.2793 0.876373 12.2872 0.880409 12.2944C0.884445 12.3015 0.889897 12.3078 0.896444 12.3129C2.25944 13.3102 3.78396 14.0715 5.40496 14.5643C5.41638 14.5677 5.42857 14.5675 5.43989 14.5639C5.45122 14.5602 5.46114 14.5532 5.46831 14.5438C5.81647 14.0756 6.12496 13.5799 6.39065 13.0616C6.3943 13.0544 6.39638 13.0467 6.39677 13.0387C6.39715 13.0307 6.39581 13.0228 6.39286 13.0153C6.3899 13.0079 6.38539 13.0012 6.37961 12.9956C6.37384 12.9901 6.36694 12.9858 6.35936 12.983C5.87289 12.7991 5.40193 12.5773 4.9509 12.3198C4.94271 12.3151 4.93583 12.3084 4.93087 12.3004C4.92591 12.2924 4.92302 12.2833 4.92245 12.2739C4.92189 12.2645 4.92368 12.2552 4.92765 12.2466C4.93162 12.2381 4.93765 12.2307 4.94522 12.225C5.03986 12.1549 5.13456 12.082 5.22493 12.0084C5.23296 12.0019 5.24267 11.9977 5.25298 11.9963C5.26329 11.9949 5.27378 11.9964 5.28327 12.0006C8.23815 13.3334 11.4372 13.3334 14.3571 12.0006C14.3666 11.9962 14.3772 11.9944 14.3877 11.9957C14.3982 11.9969 14.408 12.0011 14.4162 12.0077C14.5066 12.0813 14.6013 12.1549 14.6966 12.225C14.7042 12.2306 14.7103 12.238 14.7143 12.2465C14.7184 12.255 14.7202 12.2643 14.7197 12.2737C14.7192 12.2831 14.7164 12.2922 14.7115 12.3003C14.7066 12.3083 14.6998 12.315 14.6916 12.3198C14.2416 12.5795 13.7702 12.8011 13.2825 12.9823C13.2749 12.9852 13.2681 12.9896 13.2623 12.9952C13.2566 13.0009 13.2521 13.0077 13.2492 13.0152C13.2463 13.0226 13.245 13.0306 13.2455 13.0386C13.2459 13.0466 13.2481 13.0544 13.2518 13.0616C13.5219 13.577 13.83 14.0721 14.1734 14.543C14.1804 14.5526 14.1903 14.5599 14.2016 14.5637C14.213 14.5675 14.2253 14.5677 14.2368 14.5642C15.8607 14.0731 17.3879 13.3118 18.7526 12.3129C18.7592 12.3081 18.7648 12.3019 18.7688 12.2949C18.7729 12.2878 18.7753 12.2799 18.7761 12.2718C19.1527 8.42432 18.1456 5.0822 16.1066 2.11943ZM6.83194 10.2447C5.9423 10.2447 5.20927 9.43788 5.20927 8.44699C5.20927 7.45609 5.92808 6.64918 6.83194 6.64918C7.74285 6.64918 8.46879 7.4631 8.45457 8.44692C8.45457 9.43788 7.73573 10.2447 6.83194 10.2447ZM12.8314 10.2447C11.9418 10.2447 11.2088 9.43788 11.2088 8.44699C11.2088 7.45609 11.9276 6.64918 12.8314 6.64918C13.7424 6.64918 14.4683 7.4631 14.4541 8.44692C14.4541 9.43788 13.7424 10.2447 12.8314 10.2447Z" fill="white"/>
</svg>