<svg xmlns="http://www.w3.org/2000/svg" width="19" height="19" viewBox="0 0 19 19" fill="none">
<path fill-rule="evenodd" clip-rule="evenodd" d="M18.4568 9.61822C18.4568 8.95136 18.3969 8.31014 18.2856 7.69458H9.41675V11.3324H14.4847C14.2664 12.508 13.6029 13.504 12.6056 14.1708V16.5305H15.6489C17.4295 14.8933 18.4568 12.4823 18.4568 9.61822Z" fill="white"/>
<path fill-rule="evenodd" clip-rule="evenodd" d="M9.41636 18.8088C11.9589 18.8088 14.0905 17.9666 15.6485 16.5303L12.6052 14.1707C11.762 14.7349 10.6833 15.0684 9.41636 15.0684C6.96373 15.0684 4.88777 13.414 4.14727 11.1912H1.00122V13.6278C2.5507 16.7013 5.73527 18.8088 9.41636 18.8088Z" fill="white"/>
<path fill-rule="evenodd" clip-rule="evenodd" d="M4.14764 11.1915C3.95931 10.6272 3.8523 10.0244 3.8523 9.40461C3.8523 8.78477 3.95931 8.18203 4.14764 7.61776V5.18115H1.0016C0.363828 6.45075 0 7.88707 0 9.40461C0 10.9221 0.363828 12.3585 1.0016 13.6281L4.14764 11.1915Z" fill="white"/>
<path fill-rule="evenodd" clip-rule="evenodd" d="M9.41636 3.74041C10.7989 3.74041 12.0402 4.21491 13.0161 5.1468L15.717 2.44943C14.0862 0.931896 11.9546 0 9.41636 0C5.73527 0 2.5507 2.10745 1.00122 5.181L4.14727 7.61761C4.88777 5.39474 6.96373 3.74041 9.41636 3.74041Z" fill="white"/>
</svg>