<svg xmlns="http://www.w3.org/2000/svg" width="20" height="20" viewBox="0 0 20 20" fill="none">
<path d="M15.5581 0H4.09423C1.8334 0 0 1.83101 0 4.08889V15.5378C0 17.7957 1.8334 19.6267 4.09423 19.6267H15.5581C17.8197 19.6267 19.6523 17.7957 19.6523 15.5378V4.08889C19.6523 1.83101 17.8197 0 15.5581 0ZM6.55077 15.5378H4.09423V6.54223H6.55077V15.5378ZM5.3225 5.50529C4.5315 5.50529 3.88952 4.85924 3.88952 4.06273C3.88952 3.26621 4.5315 2.62016 5.3225 2.62016C6.11351 2.62016 6.75549 3.26621 6.75549 4.06273C6.75549 4.85924 6.11433 5.50529 5.3225 5.50529ZM16.3769 15.5378H13.9204V10.955C13.9204 8.20069 10.645 8.40922 10.645 10.955V15.5378H8.18847V6.54223H10.645V7.98561C11.7881 5.87084 16.3769 5.71464 16.3769 10.0104V15.5378Z" fill="white"/>
</svg>